<svg xmlns="http://www.w3.org/2000/svg" viewBox="18 18 210.89 64" width="111.909" height="34" fill="none" class="my-3 w-auto"><g fill="#000"><path d="m127.36 62.37 4.73 6-3.59 2.68-4.82-6.23a16.64 16.64 0 0 1-7.23 1.64c-9.19 0-16.32-7.23-16.32-16.42s7.14-16.42 16.32-16.42 16.37 7.23 16.37 16.42c0 4.96-2.09 9.32-5.46 12.32Zm-10.92-.64c1.5 0 2.86-.23 4.14-.73l-4.96-6.32 3.55-2.68 5.18 6.59c2.09-2.09 3.27-5.09 3.27-8.55 0-6.68-4.5-11.69-11.19-11.69s-11.14 5-11.14 11.69 4.5 11.69 11.14 11.69ZM165.91 50.04c0 9.28-6.73 15.92-16.46 15.92h-10.19V34.13h10.19c9.73 0 16.46 6.64 16.46 15.92Zm-5.18 0c0-6.82-4.27-11.23-11.41-11.23h-5.05v22.46h5.05c7.14 0 11.41-4.41 11.41-11.23ZM172.32 34.13h4.77l17.28 23.55h.04V34.13h5v31.83h-4.77l-17.23-23.51h-.09v23.51h-5V34.13ZM228.89 61.28v4.68h-20.78V34.13h5v27.15h15.78Z"></path></g><circle cx="50" cy="50" r="32" fill="#000"></circle><path fill="#fff" d="M56.57 58.41c9.28-7.25 10.93-20.66 3.68-29.94-7.25-9.28-20.66-10.93-29.94-3.68l26.27 33.62Z"></path><path fill="#000" d="M69.26 75.54c.15-.1.3-.21.44-.33-.15.11-.29.22-.44.33Z"></path><path fill="#fff" d="M56.57 58.41c-4.64 3.63-5.47 10.33-1.84 14.97 3.51 4.5 9.91 5.41 14.53 2.17.15-.11.3-.21.44-.33L56.57 58.41Z"></path></svg>