<svg width="193" height="34" viewBox="0 0 193 34" fill="none" xmlns="http://www.w3.org/2000/svg" style="text-decoration: none;"><path fill-rule="evenodd" clip-rule="evenodd" d="M30.396 6.534c5.78 7.398 4.468 18.08-2.93 23.861l-6.977-8.93c4.932-3.853 5.806-10.975 1.954-15.908C18.59.624 11.468-.249 6.535 3.604c7.398-5.78 18.082-4.468 23.86 2.93ZM15.22 14.722 6.535 3.604l8.686 11.118Z" fill="#000"></path><path fill-rule="evenodd" clip-rule="evenodd" d="m27.329 30.5.135-.105-6.975-8.928.002-.002 6.976 8.93a5.46 5.46 0 0 1-.138.105Zm0 0c-7.392 5.66-17.98 4.319-23.725-3.035-5.78-7.398-4.468-18.08 2.93-23.861l13.955 17.863a5.666 5.666 0 0 0 6.84 9.033Z" fill="#000"></path><path d="m54.085 21.027 1.752 2.305-1.33 1.03-1.786-2.392a6.004 6.004 0 0 1-2.679.628C46.645 22.6 44 19.825 44 16.3 44 12.775 46.645 10 50.046 10c3.4 0 6.062 2.776 6.062 6.3 0 1.903-.776 3.577-2.02 4.731l-.003-.003Zm-4.04-.242c.556 0 1.06-.087 1.532-.28l-1.836-2.427 1.314-1.029 1.92 2.53c.776-.804 1.21-1.955 1.21-3.282 0-2.565-1.665-4.485-4.143-4.485-2.477 0-4.126 1.92-4.126 4.485 0 2.564 1.669 4.485 4.126 4.485l.004.003ZM65.615 14.224v8.186h-1.598l-.1-1.258h-.067c-.439.925-1.415 1.448-2.662 1.448-1.92 0-3.063-1.275-3.063-3.437v-4.939h1.752v4.502c0 1.483.639 2.218 1.82 2.218 1.313 0 2.173-.856 2.173-2.27v-4.45h1.752-.007ZM75.906 14.225v8.185h-1.599l-.1-1.22h-.05c-.471.908-1.515 1.414-2.678 1.414-2.19 0-3.89-1.85-3.89-4.293 0-2.444 1.703-4.277 3.89-4.277 1.16 0 2.207.506 2.678 1.414h.05l.1-1.22h1.599v-.003Zm-4.11 6.737c1.465 0 2.425-1.15 2.425-2.651s-.96-2.634-2.425-2.634c-1.464 0-2.424 1.133-2.424 2.634 0 1.5.96 2.65 2.424 2.65ZM85.871 17.468v4.939H84.12v-4.502c0-1.5-.655-2.218-1.87-2.218-1.313 0-2.173.856-2.173 2.27v4.45h-1.752v-8.182h1.599l.1 1.258h.067c.438-.926 1.414-1.45 2.661-1.45 1.953 0 3.117 1.276 3.117 3.439l.003-.004ZM93.813 20.573v1.604c-.555.298-1.16.42-1.835.42-1.936 0-2.963-.978-2.963-3.14v-3.68h-1.769v-1.553h1.769v-2.287h1.752v2.287h2.963v1.552h-2.963v3.542c0 1.203.472 1.64 1.548 1.64.522 0 1.01-.104 1.498-.385ZM102.959 14.224v8.186h-1.598l-.101-1.258h-.067c-.438.925-1.414 1.448-2.661 1.448-1.92 0-3.063-1.275-3.063-3.437v-4.939h1.752v4.502c0 1.483.639 2.218 1.819 2.218 1.314 0 2.173-.856 2.173-2.27v-4.45h1.753-.007ZM117.854 17.433v4.974h-1.752v-4.502c0-1.5-.639-2.218-1.685-2.218-1.094 0-1.936.839-1.936 2.27v4.45h-1.753v-4.502c0-1.5-.638-2.218-1.665-2.218-1.11 0-1.936.839-1.936 2.27v4.45h-1.752v-8.183h1.598l.101 1.293h.067c.404-.925 1.314-1.483 2.44-1.483 1.127 0 2.07.575 2.525 1.622h.05c.488-1.03 1.515-1.622 2.745-1.622 1.803 0 2.946 1.275 2.946 3.403l.007-.004ZM134.43 16.913c0 3.559-2.491 6.106-6.096 6.106h-3.772V10.803h3.772c3.605 0 6.096 2.547 6.096 6.106v.004Zm-1.919 0c0-2.617-1.582-4.312-4.227-4.312h-1.869v8.62h1.869c2.645 0 4.227-1.692 4.227-4.312v.004ZM144.201 19.494h-6.33c.167 1.483 1.043 2.235 2.424 2.235 1.161 0 1.936-.506 2.14-1.237h1.686c-.321 1.518-1.719 2.72-3.839 2.72-2.525 0-4.177-1.764-4.177-4.276 0-2.513 1.669-4.294 4.127-4.294 2.457 0 4.026 1.691 4.026 4.242 0 .246-.017.42-.051.61h-.006Zm-6.313-1.31h4.581c-.201-1.397-.993-2.076-2.241-2.076-1.247 0-2.12.697-2.34 2.076ZM146.215 10.803h1.752v12.216h-1.752V10.803ZM156.013 21.186v1.604c-.556.298-1.161.42-1.836.42-1.936 0-2.963-.978-2.963-3.14v-3.68h-1.769v-1.553h1.769v-2.288h1.752v2.288h2.963v1.552h-2.963v3.542c0 1.203.472 1.64 1.549 1.64a2.9 2.9 0 0 0 1.498-.385ZM165.546 14.837v8.185h-1.598l-.1-1.22h-.05c-.472.908-1.515 1.414-2.679 1.414-2.19 0-3.889-1.85-3.889-4.294 0-2.443 1.702-4.276 3.889-4.276 1.161 0 2.207.506 2.679 1.414h.05l.1-1.22h1.598v-.003Zm-4.109 6.737c1.465 0 2.424-1.15 2.424-2.652 0-1.5-.959-2.633-2.424-2.633-1.465 0-2.424 1.133-2.424 2.633 0 1.501.959 2.652 2.424 2.652ZM172.344 10.803h1.769l6.396 9.038h.017v-9.038h1.852v12.216h-1.768l-6.38-9.021h-.034v9.021h-1.852V10.803ZM192.999 21.22v1.799h-7.694V10.803h1.852V21.22h5.842Z" fill="#000"></path></svg>