<svg xmlns="http://www.w3.org/2000/svg" viewBox="0 0 620.01 101.69"><defs><style>.cls-1{fill:#6d80a2;}</style></defs><g id="Layer_2" data-name="Layer 2"><g id="Layer_1-2" data-name="Layer 1"><path class="cls-1" d="M349.36,42.76h15.45V69.19h6.1V42.76h15.45V36.67h-37ZM331.83,61.81,306.28,36.67h-7V69.19h6.09v-25L330,69.2h7.92V36.67h-6.08ZM263.1,36.67,246.49,69.19h6.81l2.47-4.87H278.6l2.46,4.87h6.83L271.28,36.67Zm-4.22,21.57L267.18,42l8.3,16.21Zm-73.77,6.08h6.68l.13-.35A20.48,20.48,0,0,0,192,50.09,21.07,21.07,0,1,0,171.7,78l.93,0h20.53V71.94H172A14.72,14.72,0,0,1,158.3,63a15.17,15.17,0,0,1,1.36-14.43A15,15,0,0,1,172.08,42a16.56,16.56,0,0,1,3.31.35,15,15,0,0,1,11.25,11.05,14.56,14.56,0,0,1-1.13,10.19Zm48.26-11.91a11.43,11.43,0,1,1-22.86,0V36.67h-6.08V52.41a17.52,17.52,0,1,0,35,0V36.67h-6.09ZM610.64,36.67l-15.27,27.8L580,36.67h-9.41V69.19h6.08v-26l14.41,26h8.69l14.21-25.86V69.19H620V36.67ZM551.15,52.41a11.44,11.44,0,0,1-22.87,0V36.67h-6.1V52.41a17.53,17.53,0,1,0,35.05,0V36.67h-6.08Zm-96.91,9.4L428.7,36.67h-7V69.19h6.08v-25l24.63,25h7.92V36.67h-6.08Zm48.66-9.4a11.43,11.43,0,1,1-22.86,0V36.67H474V52.41a17.52,17.52,0,1,0,35,0V36.67h-6.1ZM399.46,69.19h6.08V36.67h-6.08Z"/><path class="cls-1" d="M101.57,50.83a50.35,50.35,0,0,1-3.4,18.3H91c1.86-40.42-50.51-58-73.56-25A34.68,34.68,0,0,1,27.45,9a0,0,0,0,0,0,0A34.67,34.67,0,0,1,39.62,1.78C70.44-7.21,102.08,19.26,101.57,50.83Z"/><path class="cls-1" d="M101.57,74.93v26.76H50.7c-.65,0-1.23,0-1.83,0A50.56,50.56,0,0,1,14.13,86.18C-5.81,66.81-4.26,31.06,16.31,13.36A40.38,40.38,0,0,0,50.7,74.93Z"/></g></g></svg>